<mxfile host="Electron" modified="2023-12-25T14:09:08.499Z" agent="Mozilla/5.0 (Windows NT 10.0; Win64; x64) AppleWebKit/537.36 (KHTML, like Gecko) draw.io/22.1.11 Chrome/114.0.5735.289 Electron/25.9.8 Safari/537.36" etag="ZkFce4iiNLg1QeH8ST17" version="22.1.11" type="device">
  <diagram name="第 1 页" id="snI7q-kfRq6vwFEAtcdj">
    <mxGraphModel dx="781" dy="544" grid="1" gridSize="10" guides="1" tooltips="1" connect="1" arrows="1" fold="1" page="1" pageScale="1" pageWidth="827" pageHeight="1169" math="0" shadow="1">
      <root>
        <mxCell id="0" />
        <mxCell id="1" parent="0" />
        <mxCell id="0iNC_Db70j4AFxBYW1zL-1" value="非掺杂" style="shape=process;backgroundOutline=1;verticalAlign=middle;" parent="1" vertex="1">
          <mxGeometry x="150" y="220" width="80" height="40" as="geometry" />
        </mxCell>
        <mxCell id="0iNC_Db70j4AFxBYW1zL-2" value="掺杂" style="shape=process;backgroundOutline=1;verticalAlign=middle;" parent="1" vertex="1">
          <mxGeometry x="150" y="310" width="80" height="40" as="geometry" />
        </mxCell>
        <mxCell id="0iNC_Db70j4AFxBYW1zL-6" value="" style="shadow=0;dashed=0;align=center;verticalAlign=middle;shape=mxgraph.arrows2.arrow;dy=0.67;dx=20;notch=0;" parent="1" vertex="1">
          <mxGeometry x="280" y="225" width="50" height="30" as="geometry" />
        </mxCell>
        <mxCell id="0iNC_Db70j4AFxBYW1zL-8" value="" style="shadow=0;dashed=0;align=center;verticalAlign=middle;shape=mxgraph.arrows2.arrow;dy=0.67;dx=20;notch=0;" parent="1" vertex="1">
          <mxGeometry x="280" y="315" width="50" height="30" as="geometry" />
        </mxCell>
        <mxCell id="cehJR6utG4KXHfp1JGYv-1" value="" style="group" vertex="1" connectable="0" parent="1">
          <mxGeometry x="375.5" y="320" width="76" height="50" as="geometry" />
        </mxCell>
        <mxCell id="0iNC_Db70j4AFxBYW1zL-9" value="" style="pointerEvents=1;verticalLabelPosition=bottom;shadow=0;dashed=0;align=center;verticalAlign=top;shape=mxgraph.electrical.resistors.resistor_2;" parent="cehJR6utG4KXHfp1JGYv-1" vertex="1">
          <mxGeometry width="76" height="20" as="geometry" />
        </mxCell>
        <mxCell id="0iNC_Db70j4AFxBYW1zL-13" value="Ron" style="text;strokeColor=none;fillColor=none;align=center;verticalAlign=top;rounded=0;" parent="cehJR6utG4KXHfp1JGYv-1" vertex="1">
          <mxGeometry x="8" y="20" width="60" height="30" as="geometry" />
        </mxCell>
        <mxCell id="cehJR6utG4KXHfp1JGYv-2" value="" style="group" vertex="1" connectable="0" parent="1">
          <mxGeometry x="376" y="230" width="76" height="50" as="geometry" />
        </mxCell>
        <mxCell id="0iNC_Db70j4AFxBYW1zL-10" value="" style="pointerEvents=1;verticalLabelPosition=bottom;shadow=0;dashed=0;align=center;verticalAlign=top;shape=mxgraph.electrical.resistors.resistor_2;" parent="cehJR6utG4KXHfp1JGYv-2" vertex="1">
          <mxGeometry width="76" height="20" as="geometry" />
        </mxCell>
        <mxCell id="0iNC_Db70j4AFxBYW1zL-14" value="Roff" style="text;strokeColor=none;fillColor=none;align=center;verticalAlign=top;rounded=0;" parent="cehJR6utG4KXHfp1JGYv-2" vertex="1">
          <mxGeometry x="8" y="20" width="60" height="30" as="geometry" />
        </mxCell>
      </root>
    </mxGraphModel>
  </diagram>
</mxfile>
